<svg xmlns="http://www.w3.org/2000/svg" xmlns:xlink="http://www.w3.org/1999/xlink" width="500" zoomAndPan="magnify" viewBox="0 0 375 374.999991" height="500" preserveAspectRatio="xMidYMid meet" version="1.0"><defs><g/><clipPath id="2b69bb7aa9"><path d="M 82.605469 147.214844 L 171.679688 147.214844 L 171.679688 246.867188 L 82.605469 246.867188 Z M 82.605469 147.214844 " clip-rule="nonzero"/></clipPath><clipPath id="6fd1afcd66"><path d="M 271.683594 186.394531 L 295.605469 186.394531 L 295.605469 210.425781 L 271.683594 210.425781 Z M 271.683594 186.394531 " clip-rule="nonzero"/></clipPath></defs><path fill="#1a477e" d="M 133.992188 211.851562 C 133.992188 211.851562 134.144531 211.753906 134.457031 211.597656 C 134.769531 211.449219 135.25 211.234375 135.914062 211.089844 C 136.578125 210.949219 137.445312 210.859375 138.433594 211.109375 C 138.925781 211.234375 139.4375 211.445312 139.933594 211.761719 C 140.425781 212.078125 140.894531 212.5 141.316406 212.996094 C 141.742188 213.492188 142.117188 214.078125 142.457031 214.699219 C 142.796875 215.324219 143.105469 215.988281 143.410156 216.691406 C 144.023438 218.09375 144.582031 219.640625 145.167969 221.292969 C 145.75 222.941406 146.339844 224.703125 147 226.535156 C 147.664062 228.359375 148.375 230.277344 149.296875 232.140625 C 149.761719 233.066406 150.273438 233.988281 150.894531 234.785156 C 151.203125 235.179688 151.539062 235.539062 151.894531 235.816406 C 151.980469 235.894531 152.074219 235.945312 152.160156 236.011719 C 152.253906 236.058594 152.34375 236.121094 152.433594 236.160156 C 152.613281 236.25 152.792969 236.304688 152.96875 236.332031 C 153.144531 236.367188 153.320312 236.359375 153.503906 236.332031 C 153.683594 236.3125 153.875 236.246094 154.070312 236.167969 C 154.457031 236 154.871094 235.722656 155.246094 235.386719 L 155.289062 235.347656 C 155.300781 235.335938 155.308594 235.332031 155.316406 235.320312 L 155.363281 235.269531 C 155.398438 235.230469 155.425781 235.207031 155.464844 235.160156 C 155.539062 235.070312 155.617188 234.988281 155.6875 234.886719 L 155.792969 234.742188 L 155.894531 234.585938 C 155.964844 234.484375 156.023438 234.371094 156.089844 234.261719 C 156.335938 233.816406 156.542969 233.304688 156.722656 232.773438 C 157.078125 231.703125 157.332031 230.527344 157.558594 229.316406 C 157.777344 228.105469 157.964844 226.847656 158.167969 225.570312 C 158.5625 223.007812 159.015625 220.339844 159.832031 217.648438 C 160.242188 216.308594 160.75 214.960938 161.414062 213.652344 C 162.074219 212.34375 162.902344 211.082031 163.90625 209.933594 C 164.90625 208.785156 166.105469 207.78125 167.410156 206.960938 C 168.070312 206.554688 168.757812 206.199219 169.460938 205.886719 L 169.992188 205.660156 C 170.167969 205.585938 170.351562 205.523438 170.527344 205.457031 L 170.796875 205.355469 L 171.097656 205.261719 L 172.105469 204.945312 C 172.285156 204.894531 172.484375 204.847656 172.667969 204.800781 L 173.238281 204.660156 C 173.429688 204.613281 173.621094 204.5625 173.804688 204.53125 C 174.175781 204.464844 174.546875 204.394531 174.917969 204.324219 C 175.289062 204.269531 175.664062 204.226562 176.039062 204.175781 C 177.535156 204.003906 179.042969 203.945312 180.535156 203.996094 C 182.027344 204.050781 183.507812 204.191406 184.976562 204.394531 C 186.441406 204.601562 187.886719 204.878906 189.316406 205.183594 C 190.746094 205.492188 192.160156 205.859375 193.554688 206.222656 C 194.9375 206.589844 196.324219 206.957031 197.703125 207.324219 C 200.460938 208.058594 203.195312 208.808594 205.917969 209.5 C 207.273438 209.84375 208.628906 210.179688 209.980469 210.496094 C 210.652344 210.652344 211.328125 210.816406 211.996094 210.96875 C 212.671875 211.113281 213.339844 211.261719 214.007812 211.40625 C 216.683594 211.976562 219.339844 212.449219 221.960938 212.816406 C 227.191406 213.535156 232.339844 213.785156 237.203125 213.730469 C 242.074219 213.675781 246.675781 213.285156 250.882812 212.652344 C 252.988281 212.34375 254.992188 211.960938 256.886719 211.546875 C 258.785156 211.128906 260.570312 210.671875 262.230469 210.183594 C 265.554688 209.203125 268.402344 208.15625 270.691406 207.160156 C 272.976562 206.160156 274.738281 205.28125 275.914062 204.636719 C 276.214844 204.480469 276.46875 204.332031 276.695312 204.207031 C 276.917969 204.082031 277.105469 203.976562 277.257812 203.890625 C 277.558594 203.722656 277.714844 203.632812 277.714844 203.632812 C 277.714844 203.632812 277.566406 203.738281 277.28125 203.933594 C 277.140625 204.03125 276.960938 204.15625 276.75 204.300781 C 276.539062 204.445312 276.296875 204.613281 276.011719 204.792969 C 275.726562 204.976562 275.410156 205.179688 275.0625 205.402344 C 274.710938 205.621094 274.320312 205.851562 273.902344 206.105469 C 273.066406 206.605469 272.082031 207.15625 270.964844 207.734375 C 268.730469 208.898438 265.933594 210.171875 262.617188 211.359375 C 259.300781 212.546875 255.460938 213.636719 251.199219 214.484375 C 249.070312 214.90625 246.832031 215.257812 244.507812 215.542969 C 242.179688 215.828125 239.765625 216.023438 237.277344 216.140625 C 232.292969 216.363281 227.03125 216.265625 221.601562 215.636719 C 218.886719 215.328125 216.15625 214.878906 213.414062 214.34375 C 212.726562 214.210938 212.042969 214.066406 211.355469 213.929688 C 210.664062 213.789062 209.980469 213.632812 209.289062 213.484375 C 207.914062 213.175781 206.539062 212.851562 205.160156 212.515625 C 202.40625 211.839844 199.644531 211.125 196.886719 210.394531 C 195.507812 210.035156 194.128906 209.671875 192.746094 209.308594 C 191.367188 208.953125 190.003906 208.609375 188.632812 208.3125 C 187.261719 208.015625 185.890625 207.75 184.523438 207.550781 C 183.152344 207.359375 181.785156 207.222656 180.425781 207.167969 L 179.410156 207.148438 C 179.070312 207.144531 178.734375 207.164062 178.394531 207.167969 C 178.226562 207.171875 178.058594 207.167969 177.890625 207.183594 L 177.390625 207.214844 C 177.058594 207.242188 176.722656 207.253906 176.390625 207.300781 C 176.0625 207.34375 175.730469 207.375 175.402344 207.421875 C 175.074219 207.480469 174.75 207.539062 174.425781 207.59375 C 174.257812 207.621094 174.105469 207.660156 173.953125 207.695312 L 173.492188 207.804688 C 173.335938 207.84375 173.1875 207.871094 173.027344 207.914062 L 172.519531 208.066406 L 172.015625 208.222656 L 171.824219 208.28125 C 171.824219 208.28125 171.734375 208.304688 171.808594 208.285156 L 171.582031 208.367188 C 171.433594 208.421875 171.28125 208.46875 171.132812 208.53125 L 170.691406 208.710938 C 170.109375 208.964844 169.550781 209.25 169.011719 209.570312 C 167.941406 210.21875 166.972656 211 166.140625 211.921875 C 165.308594 212.84375 164.597656 213.878906 164.011719 214.996094 C 163.421875 216.113281 162.9375 217.292969 162.535156 218.507812 C 161.726562 220.941406 161.242188 223.484375 160.765625 226.011719 C 160.53125 227.277344 160.304688 228.546875 160.035156 229.808594 C 159.761719 231.074219 159.457031 232.335938 158.988281 233.585938 C 158.75 234.207031 158.476562 234.832031 158.113281 235.433594 C 158.019531 235.582031 157.929688 235.730469 157.824219 235.878906 L 157.671875 236.097656 L 157.5 236.308594 C 157.394531 236.453125 157.261719 236.585938 157.140625 236.722656 C 157.078125 236.789062 156.996094 236.863281 156.925781 236.933594 L 156.8125 237.039062 L 156.757812 237.089844 L 156.714844 237.125 C 156.179688 237.5625 155.589844 237.945312 154.886719 238.222656 C 154.1875 238.492188 153.34375 238.609375 152.554688 238.429688 C 152.164062 238.34375 151.789062 238.203125 151.464844 238.023438 C 151.296875 237.9375 151.148438 237.835938 150.996094 237.738281 C 150.855469 237.632812 150.707031 237.527344 150.582031 237.414062 C 150.058594 236.964844 149.648438 236.472656 149.289062 235.972656 C 148.582031 234.96875 148.066406 233.9375 147.621094 232.921875 C 147.175781 231.90625 146.804688 230.898438 146.460938 229.914062 C 146.121094 228.925781 145.816406 227.960938 145.535156 227.015625 C 144.96875 225.128906 144.46875 223.339844 143.992188 221.664062 C 143.515625 219.992188 143.046875 218.4375 142.550781 217.027344 C 142.050781 215.625 141.535156 214.355469 140.820312 213.390625 C 140.113281 212.417969 139.210938 211.777344 138.324219 211.476562 C 137.4375 211.175781 136.601562 211.183594 135.949219 211.269531 C 135.289062 211.359375 134.800781 211.523438 134.476562 211.644531 C 134.152344 211.765625 133.992188 211.851562 133.992188 211.851562 " fill-opacity="1" fill-rule="nonzero"/><g clip-path="url(#2b69bb7aa9)"><path fill="#1a477e" d="M 169.882812 177.265625 C 169.882812 177.265625 169.914062 177.023438 169.976562 176.546875 C 170.035156 176.070312 170.117188 175.363281 170.210938 174.441406 C 170.300781 173.515625 170.394531 172.378906 170.460938 171.042969 C 170.515625 169.707031 170.546875 168.167969 170.445312 166.46875 C 170.394531 165.617188 170.300781 164.730469 170.152344 163.8125 C 170.003906 162.898438 169.789062 161.957031 169.464844 161.03125 C 169.136719 160.109375 168.695312 159.203125 168.082031 158.4375 C 167.46875 157.667969 166.675781 157.074219 165.734375 156.746094 C 164.792969 156.414062 163.703125 156.335938 162.5625 156.460938 C 161.421875 156.589844 160.234375 156.902344 159.039062 157.339844 C 157.839844 157.78125 156.628906 158.324219 155.414062 158.960938 C 154.808594 159.277344 154.199219 159.613281 153.589844 159.96875 C 153 160.3125 152.335938 160.71875 151.617188 161.09375 C 150.222656 161.835938 148.699219 162.457031 147.082031 162.917969 C 145.46875 163.378906 143.75 163.664062 141.996094 163.726562 C 140.242188 163.792969 138.457031 163.632812 136.703125 163.300781 C 134.949219 162.964844 133.222656 162.460938 131.542969 161.855469 C 129.855469 161.253906 128.214844 160.539062 126.597656 159.789062 C 124.976562 159.035156 123.378906 158.246094 121.78125 157.46875 C 120.183594 156.695312 118.585938 155.933594 116.976562 155.234375 C 115.363281 154.539062 113.734375 153.917969 112.082031 153.4375 C 108.785156 152.476562 105.40625 152.128906 102.109375 152.753906 C 101.285156 152.90625 100.464844 153.117188 99.65625 153.378906 C 99.453125 153.445312 99.25 153.511719 99.050781 153.585938 L 98.898438 153.636719 C 98.828125 153.664062 98.914062 153.632812 98.875 153.648438 L 98.789062 153.679688 L 98.453125 153.8125 C 98.34375 153.855469 98.21875 153.902344 98.125 153.941406 L 97.863281 154.058594 L 97.605469 154.171875 C 97.515625 154.214844 97.421875 154.261719 97.332031 154.308594 C 95.851562 155.023438 94.515625 155.96875 93.382812 157.128906 C 92.246094 158.292969 91.304688 159.664062 90.570312 161.1875 C 89.832031 162.710938 89.296875 164.382812 88.933594 166.121094 C 88.570312 167.863281 88.371094 169.675781 88.308594 171.511719 C 88.273438 172.433594 88.277344 173.359375 88.304688 174.285156 C 88.332031 175.214844 88.394531 176.148438 88.476562 177.082031 C 88.8125 180.820312 89.554688 184.558594 90.550781 188.226562 C 91.046875 190.0625 91.621094 191.875 92.242188 193.671875 C 92.867188 195.464844 93.550781 197.234375 94.285156 198.972656 C 94.464844 199.410156 94.65625 199.84375 94.84375 200.277344 C 95.039062 200.71875 95.234375 201.160156 95.429688 201.605469 C 95.820312 202.488281 96.214844 203.367188 96.605469 204.246094 C 97.390625 206.007812 98.171875 207.757812 98.949219 209.496094 C 100.507812 212.976562 102.089844 216.402344 103.539062 219.894531 C 103.902344 220.765625 104.253906 221.648438 104.597656 222.53125 C 104.933594 223.417969 105.261719 224.308594 105.5625 225.207031 C 105.867188 226.105469 106.152344 227.007812 106.410156 227.914062 C 106.660156 228.820312 106.898438 229.726562 107.105469 230.632812 C 107.523438 232.441406 107.847656 234.230469 108.128906 235.992188 C 108.199219 236.429688 108.265625 236.871094 108.332031 237.308594 C 108.351562 237.421875 108.398438 237.75 108.425781 237.867188 L 108.472656 238.101562 L 108.535156 238.355469 C 108.703125 239.03125 108.9375 239.667969 109.246094 240.242188 C 109.855469 241.398438 110.753906 242.265625 111.761719 242.65625 C 112.761719 243.058594 113.890625 242.980469 115 242.496094 C 115.554688 242.25 116.097656 241.914062 116.605469 241.5 C 117.117188 241.085938 117.59375 240.613281 118.039062 240.09375 C 118.933594 239.058594 119.675781 237.863281 120.328125 236.636719 C 120.972656 235.402344 121.515625 234.125 121.972656 232.839844 C 122.4375 231.554688 122.820312 230.261719 123.15625 228.988281 C 123.316406 228.335938 123.476562 227.695312 123.636719 227.0625 C 123.71875 226.734375 123.804688 226.410156 123.886719 226.089844 C 123.972656 225.769531 124.058594 225.453125 124.144531 225.140625 C 124.492188 223.882812 124.859375 222.671875 125.261719 221.507812 C 125.664062 220.34375 126.085938 219.226562 126.546875 218.164062 C 127.003906 217.101562 127.5 216.097656 128.039062 215.160156 C 128.304688 214.691406 128.585938 214.238281 128.878906 213.808594 C 129.167969 213.375 129.472656 212.960938 129.789062 212.574219 C 130.414062 211.789062 131.109375 211.109375 131.839844 210.550781 C 132.574219 209.992188 133.355469 209.574219 134.128906 209.300781 C 134.90625 209.027344 135.675781 208.914062 136.378906 208.890625 C 137.792969 208.855469 138.941406 209.167969 139.828125 209.464844 C 140.71875 209.769531 141.367188 210.078125 141.800781 210.289062 C 142.230469 210.5 142.449219 210.617188 142.449219 210.617188 C 142.449219 210.617188 142.21875 210.527344 141.765625 210.367188 C 141.3125 210.210938 140.636719 209.984375 139.738281 209.78125 C 139.292969 209.683594 138.785156 209.597656 138.230469 209.550781 C 137.675781 209.503906 137.070312 209.496094 136.429688 209.578125 C 135.792969 209.664062 135.125 209.839844 134.46875 210.144531 C 133.8125 210.449219 133.167969 210.878906 132.570312 211.429688 C 131.371094 212.535156 130.351562 214.09375 129.503906 215.921875 C 128.660156 217.753906 127.953125 219.847656 127.363281 222.140625 C 127.070312 223.285156 126.796875 224.476562 126.546875 225.714844 C 126.484375 226.023438 126.425781 226.335938 126.363281 226.652344 C 126.304688 226.964844 126.246094 227.277344 126.1875 227.597656 C 126.074219 228.25 125.957031 228.914062 125.839844 229.585938 C 125.585938 230.953125 125.257812 232.347656 124.847656 233.765625 C 124.4375 235.1875 123.933594 236.625 123.292969 238.070312 C 122.644531 239.507812 121.851562 240.953125 120.804688 242.324219 C 120.277344 243.007812 119.683594 243.671875 119.003906 244.285156 C 118.324219 244.902344 117.542969 245.464844 116.65625 245.921875 C 115.765625 246.371094 114.761719 246.710938 113.683594 246.820312 C 113.144531 246.878906 112.59375 246.882812 112.042969 246.824219 C 111.492188 246.761719 110.941406 246.644531 110.414062 246.46875 C 109.355469 246.117188 108.382812 245.539062 107.566406 244.824219 C 107.160156 244.46875 106.785156 244.078125 106.445312 243.667969 C 106.105469 243.253906 105.804688 242.816406 105.53125 242.367188 C 104.996094 241.464844 104.585938 240.503906 104.300781 239.515625 L 104.195312 239.148438 L 104.097656 238.746094 C 104.027344 238.445312 104.011719 238.34375 103.949219 238.03125 C 103.871094 237.613281 103.789062 237.195312 103.707031 236.777344 C 103.375 235.101562 103.003906 233.425781 102.550781 231.769531 C 102.101562 230.113281 101.574219 228.472656 100.96875 226.832031 C 100.664062 226.015625 100.332031 225.195312 99.992188 224.371094 C 99.644531 223.546875 99.285156 222.722656 98.910156 221.890625 C 98.167969 220.230469 97.363281 218.558594 96.566406 216.859375 C 95.757812 215.160156 94.941406 213.445312 94.121094 211.722656 C 93.304688 209.992188 92.480469 208.25 91.65625 206.5 C 91.246094 205.621094 90.839844 204.738281 90.429688 203.855469 C 90.226562 203.414062 90.023438 202.96875 89.820312 202.527344 C 89.613281 202.070312 89.40625 201.613281 89.207031 201.152344 C 87.597656 197.476562 86.207031 193.660156 85.109375 189.726562 C 84.007812 185.792969 83.199219 181.742188 82.816406 177.589844 C 82.726562 176.554688 82.660156 175.511719 82.628906 174.460938 C 82.597656 173.414062 82.601562 172.359375 82.640625 171.304688 C 82.714844 169.191406 82.964844 167.0625 83.417969 164.945312 C 83.644531 163.886719 83.929688 162.835938 84.28125 161.792969 C 84.632812 160.753906 85.054688 159.726562 85.550781 158.730469 C 86.542969 156.734375 87.851562 154.839844 89.46875 153.242188 C 91.082031 151.636719 92.988281 150.335938 95.003906 149.40625 C 95.132812 149.347656 95.253906 149.289062 95.382812 149.230469 L 96.195312 148.894531 C 96.324219 148.84375 96.425781 148.808594 96.542969 148.765625 L 96.882812 148.640625 L 96.96875 148.613281 C 96.984375 148.605469 97.125 148.554688 97.109375 148.5625 L 97.300781 148.496094 C 97.554688 148.410156 97.8125 148.332031 98.066406 148.253906 C 99.09375 147.949219 100.140625 147.703125 101.199219 147.53125 C 103.320312 147.179688 105.476562 147.128906 107.566406 147.339844 C 109.65625 147.542969 111.664062 148.023438 113.5625 148.632812 C 115.464844 149.246094 117.257812 149.996094 118.972656 150.796875 C 120.691406 151.597656 122.324219 152.453125 123.910156 153.300781 C 125.496094 154.144531 127.039062 154.980469 128.558594 155.757812 C 130.082031 156.535156 131.585938 157.25 133.078125 157.871094 C 134.570312 158.488281 136.0625 158.996094 137.542969 159.347656 C 139.023438 159.703125 140.496094 159.890625 141.945312 159.917969 C 143.394531 159.945312 144.820312 159.789062 146.195312 159.480469 C 147.574219 159.167969 148.898438 158.699219 150.167969 158.132812 C 150.789062 157.855469 151.398438 157.535156 152.085938 157.1875 C 152.757812 156.851562 153.429688 156.53125 154.105469 156.234375 C 155.453125 155.636719 156.8125 155.113281 158.191406 154.71875 C 159.570312 154.324219 160.972656 154.050781 162.390625 153.992188 C 163.101562 153.96875 163.816406 153.996094 164.519531 154.109375 C 165.222656 154.222656 165.914062 154.417969 166.5625 154.707031 C 167.210938 154.996094 167.808594 155.375 168.324219 155.820312 C 168.84375 156.265625 169.277344 156.773438 169.636719 157.300781 C 170.355469 158.359375 170.773438 159.480469 171.050781 160.554688 C 171.328125 161.628906 171.464844 162.664062 171.539062 163.652344 C 171.617188 164.636719 171.617188 165.570312 171.589844 166.453125 C 171.53125 168.214844 171.351562 169.769531 171.148438 171.109375 C 170.953125 172.449219 170.730469 173.578125 170.535156 174.488281 C 170.34375 175.402344 170.175781 176.09375 170.0625 176.5625 C 169.945312 177.027344 169.882812 177.265625 169.882812 177.265625 " fill-opacity="1" fill-rule="nonzero"/></g><path fill="#1a477e" d="M 111.4375 167.101562 C 111.4375 167.101562 112.105469 167.078125 113.277344 167 C 114.449219 166.925781 116.121094 166.796875 118.121094 166.589844 C 119.121094 166.484375 120.203125 166.363281 121.34375 166.214844 C 122.484375 166.074219 123.6875 165.902344 124.925781 165.714844 C 126.164062 165.519531 127.441406 165.308594 128.734375 165.066406 C 130.027344 164.832031 131.335938 164.5625 132.636719 164.277344 C 133.289062 164.132812 133.9375 163.980469 134.582031 163.828125 C 135.222656 163.667969 135.867188 163.515625 136.5 163.347656 C 137.761719 163.011719 139 162.660156 140.1875 162.292969 C 140.777344 162.105469 141.363281 161.929688 141.925781 161.730469 C 142.488281 161.539062 143.042969 161.355469 143.574219 161.15625 C 144.640625 160.769531 145.628906 160.371094 146.539062 159.992188 C 146.988281 159.796875 147.417969 159.609375 147.832031 159.429688 C 148.234375 159.238281 148.617188 159.058594 148.976562 158.886719 C 149.152344 158.800781 149.328125 158.722656 149.496094 158.636719 C 149.65625 158.554688 149.816406 158.472656 149.96875 158.390625 C 150.273438 158.234375 150.550781 158.089844 150.804688 157.957031 C 151.300781 157.683594 151.679688 157.457031 151.945312 157.308594 C 152.207031 157.160156 152.347656 157.082031 152.347656 157.082031 L 153.890625 159.890625 C 153.890625 159.890625 153.734375 159.964844 153.4375 160.105469 C 153.144531 160.242188 152.710938 160.457031 152.160156 160.707031 C 151.878906 160.828125 151.570312 160.960938 151.234375 161.105469 C 151.066406 161.175781 150.894531 161.25 150.710938 161.328125 C 150.53125 161.40625 150.339844 161.476562 150.144531 161.550781 C 149.75 161.703125 149.335938 161.863281 148.894531 162.035156 C 148.449219 162.1875 147.984375 162.351562 147.496094 162.523438 C 146.519531 162.847656 145.457031 163.183594 144.328125 163.496094 C 143.765625 163.664062 143.179688 163.808594 142.582031 163.964844 C 141.988281 164.125 141.378906 164.261719 140.757812 164.40625 C 139.515625 164.695312 138.222656 164.957031 136.910156 165.199219 C 136.257812 165.324219 135.59375 165.429688 134.929688 165.546875 C 134.261719 165.652344 133.59375 165.757812 132.925781 165.855469 C 131.585938 166.042969 130.246094 166.214844 128.925781 166.355469 C 127.605469 166.503906 126.300781 166.617188 125.042969 166.71875 C 123.785156 166.816406 122.566406 166.898438 121.410156 166.957031 C 120.253906 167.019531 119.164062 167.058594 118.15625 167.089844 C 116.136719 167.148438 114.457031 167.148438 113.28125 167.140625 C 112.105469 167.128906 111.4375 167.101562 111.4375 167.101562 " fill-opacity="1" fill-rule="nonzero"/><g clip-path="url(#6fd1afcd66)"><path fill="#27aae1" d="M 295.605469 198.367188 C 284.933594 199.058594 284.371094 199.617188 283.679688 210.28125 C 282.988281 199.617188 282.429688 199.058594 271.753906 198.367188 C 282.429688 197.679688 282.988281 197.117188 283.679688 186.457031 C 284.371094 197.117188 284.933594 197.679688 295.605469 198.367188 " fill-opacity="1" fill-rule="nonzero"/></g><path fill="#27aae1" d="M 280.367188 208.957031 C 278.355469 209.089844 278.25 209.195312 278.117188 211.207031 C 277.988281 209.195312 277.882812 209.089844 275.867188 208.957031 C 277.882812 208.828125 277.988281 208.722656 278.117188 206.710938 C 278.25 208.722656 278.355469 208.828125 280.367188 208.957031 " fill-opacity="1" fill-rule="nonzero"/><path fill="#27aae1" d="M 268.507812 201.484375 C 263.144531 201.828125 262.863281 202.113281 262.515625 207.46875 C 262.167969 202.113281 261.886719 201.828125 256.527344 201.484375 C 261.886719 201.136719 262.167969 200.855469 262.515625 195.5 C 262.863281 200.855469 263.144531 201.136719 268.507812 201.484375 " fill-opacity="1" fill-rule="nonzero"/><g fill="#082066" fill-opacity="1"><g transform="translate(108.547884, 192.218527)"><g><path d="M 13.121094 -12.742188 C 12.851562 -12.78125 12.546875 -12.742188 12.292969 -12.671875 C 11.953125 -12.582031 11.609375 -12.472656 11.304688 -12.328125 C 10.890625 -12.113281 10.566406 -11.753906 10.222656 -11.449219 C 10.042969 -11.269531 9.882812 -11.070312 9.71875 -10.890625 C 9.503906 -10.675781 9.269531 -10.457031 9.070312 -10.207031 C 8.839844 -9.917969 8.585938 -9.613281 8.296875 -9.378906 C 7.902344 -9.070312 7.632812 -8.640625 7.234375 -8.335938 C 7.003906 -8.136719 6.839844 -7.847656 6.589844 -7.667969 C 6.355469 -7.507812 6.175781 -7.273438 5.957031 -7.054688 C 5.902344 -7.667969 5.941406 -8.261719 5.921875 -8.839844 C 5.902344 -9.574219 5.902344 -10.296875 5.902344 -11.035156 C 5.902344 -11.449219 5.921875 -11.878906 5.921875 -12.3125 C 5.921875 -12.421875 5.941406 -12.511719 5.886719 -12.582031 C 4.300781 -12.527344 2.71875 -12.582031 1.117188 -12.617188 C 1.078125 -12.347656 1.152344 -12.097656 1.117188 -11.863281 C 1.0625 -11.339844 1.152344 -10.816406 1.117188 -10.277344 C 1.097656 -9.972656 1.152344 -9.648438 1.152344 -9.324219 C 1.152344 -8.890625 1.097656 -8.460938 1.152344 -8.046875 C 1.207031 -7.523438 1.152344 -7.019531 1.132812 -6.496094 C 1.132812 -6.246094 1.152344 -5.992188 1.152344 -5.742188 C 1.152344 -5.453125 1.171875 -5.183594 1.132812 -4.894531 C 1.117188 -4.644531 1.078125 -4.375 1.078125 -4.105469 C 1.078125 -3.796875 1.097656 -3.492188 1.097656 -3.1875 C 1.117188 -2.683594 1.132812 -2.160156 1.132812 -1.65625 C 1.117188 -1.207031 1.207031 -0.738281 1.117188 -0.289062 C 1.097656 -0.160156 1.1875 -0.0546875 1.332031 -0.0546875 C 1.621094 -0.0351562 1.90625 -0.0351562 2.195312 -0.0351562 C 2.988281 -0.0898438 3.761719 -0.0351562 4.535156 -0.0195312 C 5.023438 -0.0195312 5.488281 0 5.941406 -0.0351562 C 6.046875 -0.125 6.085938 -0.199219 6.085938 -0.304688 C 6.066406 -0.523438 6.046875 -0.757812 6.046875 -0.972656 C 6.011719 -1.675781 6.011719 -2.394531 5.992188 -3.113281 L 5.992188 -4.519531 C 6.136719 -4.480469 6.226562 -4.390625 6.316406 -4.285156 C 6.535156 -3.996094 6.714844 -3.691406 6.929688 -3.402344 C 7.199219 -3.058594 7.433594 -2.664062 7.6875 -2.285156 C 7.828125 -2.050781 8.011719 -1.835938 8.136719 -1.585938 C 8.226562 -1.386719 8.371094 -1.207031 8.496094 -1.007812 C 8.675781 -0.71875 8.890625 -0.503906 9.160156 -0.125 C 9.179688 -0.0898438 9.234375 -0.0351562 9.289062 -0.0351562 C 9.433594 -0.0195312 9.558594 0 9.703125 -0.0195312 C 10.042969 -0.0703125 10.3125 -0.0195312 10.65625 -0.0351562 C 10.890625 -0.0351562 11.105469 0.0351562 11.320312 0.0351562 C 12.148438 -0.0351562 12.976562 -0.0351562 13.804688 -0.0195312 C 14.039062 -0.0195312 14.617188 -0.0351562 14.6875 -0.0546875 C 14.832031 -0.0898438 14.867188 -0.199219 14.796875 -0.34375 L 14.6875 -0.484375 C 14.183594 -1.0625 13.753906 -1.691406 13.265625 -2.269531 C 12.851562 -2.789062 12.472656 -3.347656 12.078125 -3.886719 C 11.71875 -4.355469 11.375 -4.859375 10.996094 -5.328125 C 10.65625 -5.742188 10.3125 -6.175781 9.988281 -6.605469 C 9.738281 -6.929688 9.503906 -7.253906 9.269531 -7.597656 C 9.394531 -7.738281 9.59375 -7.792969 9.683594 -7.957031 C 9.808594 -8.191406 10.042969 -8.316406 10.1875 -8.515625 C 10.386719 -8.746094 10.566406 -9.019531 10.800781 -9.199219 C 11.125 -9.449219 11.359375 -9.773438 11.683594 -10.027344 C 11.988281 -10.277344 12.292969 -10.546875 12.691406 -10.691406 C 13.175781 -10.871094 13.625 -10.835938 14.074219 -10.585938 C 14.183594 -10.601562 14.292969 -10.675781 14.273438 -10.800781 C 14.238281 -11.285156 14.292969 -11.773438 14.257812 -12.257812 C 14.148438 -12.457031 13.984375 -12.457031 13.824219 -12.582031 C 13.644531 -12.726562 13.339844 -12.726562 13.121094 -12.742188 Z M 13.121094 -12.742188 "/></g></g></g><g fill="#082066" fill-opacity="1"><g transform="translate(123.865835, 192.218527)"><g><path d="M 11.574219 -12.601562 L 11.429688 -12.601562 C 10.855469 -12.601562 10.277344 -12.636719 9.71875 -12.582031 C 9.144531 -12.527344 8.566406 -12.601562 8.011719 -12.5625 C 7.433594 -12.511719 6.839844 -12.582031 6.265625 -12.546875 C 5.867188 -12.527344 5.453125 -12.546875 5.058594 -12.527344 C 3.925781 -12.472656 2.789062 -12.5625 1.65625 -12.511719 C 1.492188 -12.511719 1.402344 -12.546875 1.242188 -12.492188 C 1.207031 -12.4375 1.117188 -12.421875 1.078125 -12.382812 C 1.097656 -12.148438 1.171875 -10.816406 1.132812 -9.125 C 1.097656 -8.621094 1.097656 -8.117188 1.078125 -7.613281 C 1.078125 -7.109375 1.097656 -6.589844 1.097656 -6.085938 C 1.097656 -5.597656 1.132812 -5.128906 1.171875 -4.644531 C 1.207031 -4.339844 1.1875 -4.03125 1.1875 -3.726562 C 1.1875 -3.347656 1.207031 -2.953125 1.171875 -2.59375 C 1.132812 -2.214844 1.132812 -1.871094 1.171875 -1.511719 C 1.207031 -1.007812 1.222656 -0.484375 1.1875 0.0195312 C 1.1875 0.0898438 1.675781 0.0195312 1.835938 0.0195312 C 2.304688 0.0195312 2.753906 0.0546875 3.203125 0.0898438 C 3.601562 0.109375 5.09375 0.0195312 5.308594 0.0195312 C 6.316406 0.0195312 7.324219 0.0351562 8.316406 0 C 9.089844 -0.0195312 9.863281 -0.0703125 10.636719 -0.0195312 C 11.25 0.0195312 11.84375 -0.0898438 12.457031 -0.0703125 C 12.707031 -0.0546875 12.835938 -0.199219 12.816406 -0.449219 L 12.816406 -1.800781 C 12.4375 -1.996094 12.078125 -1.816406 11.71875 -1.816406 C 11.125 -1.816406 10.511719 -1.835938 9.917969 -1.765625 C 9.628906 -1.746094 9.324219 -1.800781 9.054688 -1.746094 C 8.585938 -1.675781 8.136719 -1.691406 7.667969 -1.65625 C 7.308594 -1.636719 6.910156 -1.65625 6.535156 -1.675781 C 6.371094 -1.691406 6.191406 -1.621094 6.046875 -1.726562 C 5.992188 -2.96875 5.886719 -4.210938 5.976562 -5.472656 L 7.308594 -5.472656 C 7.558594 -5.472656 7.8125 -5.472656 8.0625 -5.488281 C 8.710938 -5.507812 9.34375 -5.542969 9.988281 -5.542969 C 10.332031 -5.542969 10.675781 -5.5625 11.015625 -5.5625 C 11.195312 -5.5625 11.304688 -5.707031 11.304688 -5.886719 C 11.285156 -6.28125 11.269531 -6.679688 11.285156 -7.09375 C 11.304688 -7.34375 11.160156 -7.488281 10.90625 -7.507812 C 10.601562 -7.523438 10.296875 -7.507812 9.988281 -7.488281 C 9.359375 -7.46875 8.730469 -7.414062 8.101562 -7.414062 C 7.8125 -7.433594 7.523438 -7.453125 7.234375 -7.398438 C 6.820312 -7.34375 6.425781 -7.46875 6.011719 -7.414062 C 5.886719 -8.515625 6.011719 -9.703125 5.976562 -10.78125 C 8.011719 -10.960938 10.0625 -10.835938 12.097656 -10.871094 C 12.113281 -10.960938 12.148438 -11.050781 12.132812 -11.140625 C 12.097656 -11.464844 12.058594 -11.789062 12.113281 -12.132812 C 12.148438 -12.472656 11.933594 -12.636719 11.574219 -12.601562 Z M 11.574219 -12.601562 "/></g></g></g><g fill="#082066" fill-opacity="1"><g transform="translate(137.221798, 192.218527)"><g><path d="M 5.777344 -12.601562 C 5.488281 -12.546875 5.21875 -12.636719 4.949219 -12.601562 C 4.410156 -12.546875 3.851562 -12.511719 3.292969 -12.511719 C 2.789062 -12.527344 2.285156 -12.457031 1.765625 -12.511719 C 1.566406 -12.511719 1.351562 -12.546875 1.171875 -12.472656 C 1.027344 -12.367188 1.152344 -11.230469 1.152344 -10.78125 C 1.171875 -10.511719 1.078125 -10.242188 1.078125 -9.953125 C 1.097656 -9.484375 1.097656 -9.019531 1.152344 -8.53125 C 1.222656 -7.703125 1.117188 -6.875 1.117188 -6.046875 C 1.132812 -5.527344 1.117188 -4.984375 1.152344 -4.464844 C 1.222656 -3.886719 1.132812 -3.3125 1.1875 -2.734375 C 1.261719 -1.980469 1.207031 -1.207031 1.207031 -0.433594 C 1.207031 -0.253906 1.277344 -0.0898438 1.386719 0.0351562 C 2.089844 0.0351562 2.789062 0.0703125 3.472656 0.0195312 C 4.339844 -0.0351562 5.203125 0 6.066406 -0.0195312 C 6.949219 -0.0546875 7.828125 -0.0195312 8.710938 -0.0546875 C 9.34375 -0.0898438 9.972656 -0.0351562 10.585938 -0.0703125 C 10.835938 -0.0898438 11.070312 0.0195312 11.320312 -0.109375 C 11.609375 -0.394531 11.429688 -0.773438 11.484375 -1.1875 L 11.503906 -1.925781 C 11.449219 -2.035156 11.339844 -2.070312 11.230469 -2.050781 C 11.015625 -2.035156 10.78125 -1.996094 10.566406 -2.035156 C 10.171875 -2.089844 9.773438 -1.960938 9.378906 -1.980469 C 9.089844 -1.996094 8.785156 -1.996094 8.496094 -1.980469 C 8.117188 -1.960938 7.738281 -1.945312 7.363281 -1.945312 L 6.175781 -1.945312 C 5.921875 -5.453125 5.957031 -8.945312 6.101562 -12.421875 C 5.976562 -12.511719 5.867188 -12.617188 5.777344 -12.601562 Z M 5.777344 -12.601562 "/></g></g></g><g fill="#082066" fill-opacity="1"><g transform="translate(149.263763, 192.218527)"><g><path d="M 5.796875 -12.636719 C 4.285156 -12.652344 2.71875 -12.4375 1.171875 -12.527344 C 1.078125 -12.4375 1.078125 -12.367188 1.078125 -12.292969 C 1.078125 -11.410156 1.117188 -10.53125 1.117188 -9.628906 C 1.132812 -8.496094 1.097656 -7.378906 1.117188 -6.246094 C 1.132812 -5.273438 1.261719 -4.390625 1.242188 -3.421875 C 1.222656 -2.953125 1.332031 -2.269531 1.601562 -1.835938 C 1.996094 -1.1875 2.464844 -0.863281 3.113281 -0.523438 C 4.03125 -0.0195312 5.074219 0.0195312 6.085938 0.199219 C 6.859375 0.34375 7.507812 0.289062 8.117188 0.289062 C 8.28125 0.304688 8.820312 0.253906 8.980469 0.234375 C 9.613281 0.160156 10.097656 0.0898438 10.710938 -0.0703125 C 11.449219 -0.253906 12.078125 -0.539062 12.5625 -1.132812 C 13.066406 -1.765625 13.464844 -2.429688 13.570312 -3.222656 C 13.625 -3.726562 13.609375 -4.246094 13.589844 -4.769531 C 13.570312 -5.21875 13.609375 -5.6875 13.570312 -6.136719 C 13.480469 -7.128906 13.535156 -8.136719 13.5 -9.125 C 13.480469 -9.808594 13.519531 -10.511719 13.535156 -11.195312 C 13.554688 -11.609375 13.535156 -12.023438 13.535156 -12.472656 C 12.835938 -12.5625 12.1875 -12.511719 11.503906 -12.527344 C 11.554688 -12.113281 11.464844 -11.734375 11.484375 -11.359375 C 11.519531 -11.089844 11.554688 -10.835938 11.554688 -10.566406 C 11.574219 -9.484375 11.59375 -8.425781 11.554688 -7.363281 C 11.554688 -6.820312 11.59375 -6.28125 11.609375 -5.742188 C 11.628906 -5.21875 11.609375 -4.679688 11.59375 -4.140625 C 11.574219 -3.527344 11.320312 -3.078125 10.925781 -2.664062 C 10.621094 -2.339844 10.1875 -2.230469 9.773438 -2.105469 C 8.945312 -1.835938 8.136719 -1.765625 7.308594 -2.140625 C 7.128906 -2.230469 6.949219 -2.304688 6.769531 -2.410156 C 6.265625 -2.753906 6.085938 -3.257812 5.992188 -3.816406 C 5.851562 -4.535156 5.902344 -5.238281 5.902344 -5.957031 C 5.902344 -7.398438 5.902344 -8.820312 5.921875 -10.261719 C 5.941406 -10.90625 5.867188 -11.574219 5.976562 -12.238281 C 5.992188 -12.382812 5.976562 -12.511719 5.796875 -12.636719 Z M 5.796875 -12.636719 "/></g></g></g><g fill="#082066" fill-opacity="1"><g transform="translate(163.987719, 192.218527)"><g><path d="M 1.242188 -12.601562 C 1.152344 -12.546875 1.117188 -12.472656 1.171875 -12.347656 C 1.1875 -12.292969 1.1875 -12.203125 1.171875 -12.148438 C 1.132812 -11.753906 1.132812 -11.375 1.117188 -10.980469 C 1.117188 -10.367188 1.152344 -9.757812 1.097656 -9.144531 C 1.0625 -8.621094 1.097656 -8.101562 1.097656 -7.578125 C 1.117188 -7.183594 1.171875 -6.785156 1.152344 -6.390625 C 1.117188 -5.761719 1.171875 -5.128906 1.171875 -4.5 C 1.152344 -3.996094 1.171875 -3.472656 1.1875 -2.96875 C 1.207031 -2.574219 1.1875 -2.179688 1.242188 -1.78125 C 1.296875 -1.296875 1.1875 -0.0898438 1.242188 0.0546875 C 1.296875 0.0546875 2.015625 -0.0351562 2.269531 -0.0195312 C 2.519531 0.0195312 2.773438 0.0195312 3.023438 0.0195312 C 3.277344 0.0195312 3.527344 -0.0195312 3.78125 -0.0195312 C 4.140625 -0.0195312 4.5 0 4.84375 0 C 5.183594 -0.0195312 5.527344 -0.0195312 5.886719 -0.0546875 C 6.300781 -0.0898438 6.730469 -0.0351562 7.183594 -0.0351562 C 8.046875 -0.0351562 8.910156 0.0195312 9.773438 -0.0195312 C 10.117188 -0.0195312 10.457031 0.0195312 10.78125 0 C 11.195312 -0.0195312 11.59375 0 12.007812 -0.0195312 C 12.601562 -0.0546875 13.195312 -0.0703125 13.753906 -0.414062 C 14.164062 -0.648438 14.507812 -0.9375 14.707031 -1.351562 C 15.011719 -1.945312 15.210938 -2.554688 15.191406 -3.238281 C 15.175781 -3.941406 15.046875 -4.589844 14.617188 -5.148438 C 14.382812 -5.4375 14.148438 -5.742188 13.824219 -5.886719 C 13.464844 -6.066406 13.066406 -6.191406 12.671875 -6.265625 C 12.402344 -6.300781 12.132812 -6.355469 11.84375 -6.390625 C 12.078125 -6.460938 12.292969 -6.515625 12.511719 -6.589844 C 13.375 -6.910156 13.984375 -7.453125 14.183594 -8.40625 C 14.257812 -8.710938 14.292969 -9.035156 14.273438 -9.359375 C 14.238281 -9.703125 14.148438 -10.027344 14.074219 -10.367188 C 13.933594 -10.996094 13.589844 -11.503906 13.066406 -11.898438 C 12.816406 -12.113281 12.511719 -12.238281 12.1875 -12.367188 C 11.878906 -12.472656 11.59375 -12.5625 11.25 -12.582031 C 10.351562 -12.617188 6.964844 -12.691406 5.796875 -12.582031 C 5.023438 -12.527344 4.265625 -12.601562 3.492188 -12.5625 C 2.734375 -12.546875 1.996094 -12.636719 1.242188 -12.601562 Z M 7.597656 -11.035156 C 7.992188 -11.015625 8.386719 -10.925781 8.746094 -10.675781 C 9 -10.492188 9.125 -10.207031 9.214844 -9.917969 C 9.378906 -9.449219 9.394531 -8.980469 9.324219 -8.476562 C 9.234375 -7.992188 9.019531 -7.613281 8.550781 -7.433594 C 8.351562 -7.34375 8.117188 -7.324219 7.902344 -7.308594 C 7.414062 -7.273438 6.929688 -7.273438 6.445312 -7.273438 C 6.355469 -7.273438 6.265625 -7.273438 6.15625 -7.289062 C 6.136719 -8.53125 6.101562 -9.738281 6.085938 -10.925781 C 6.121094 -10.980469 6.15625 -10.980469 6.191406 -10.980469 C 6.660156 -10.996094 7.128906 -11.035156 7.597656 -11.035156 Z M 7.847656 -5.4375 C 8.316406 -5.4375 8.785156 -5.417969 9.144531 -5.039062 C 9.433594 -4.714844 9.59375 -4.339844 9.648438 -3.90625 C 9.648438 -3.78125 9.703125 -3.652344 9.703125 -3.527344 C 9.664062 -3.113281 9.59375 -2.71875 9.449219 -2.339844 C 9.414062 -2.230469 9.34375 -2.160156 9.253906 -2.070312 C 8.929688 -1.746094 8.53125 -1.675781 8.101562 -1.726562 C 7.703125 -1.765625 7.289062 -1.78125 6.894531 -1.78125 C 6.640625 -1.765625 6.390625 -1.78125 6.121094 -1.800781 L 6.121094 -5.382812 C 6.335938 -5.363281 6.535156 -5.382812 6.75 -5.382812 C 7.109375 -5.417969 7.488281 -5.417969 7.847656 -5.4375 Z M 7.847656 -5.4375 "/></g></g></g><g fill="#082066" fill-opacity="1"><g transform="translate(179.989672, 192.218527)"><g><path d="M 5.867188 -12.636719 C 5.527344 -12.582031 5.203125 -12.5625 4.859375 -12.582031 C 4.480469 -12.601562 4.085938 -12.601562 3.691406 -12.582031 C 3.457031 -12.5625 3.222656 -12.5625 2.988281 -12.582031 C 2.699219 -12.601562 2.410156 -12.671875 2.125 -12.601562 C 1.78125 -12.527344 1.441406 -12.601562 1.078125 -12.546875 C 1.078125 -12.527344 1.117188 -11.789062 1.117188 -11.464844 C 1.117188 -11.179688 1.078125 -10.890625 1.097656 -10.601562 C 1.097656 -10.3125 1.152344 -10.042969 1.171875 -9.757812 C 1.207031 -9.359375 1.171875 -8.945312 1.171875 -8.53125 C 1.1875 -7.972656 1.171875 -7.414062 1.171875 -6.859375 C 1.171875 -6.390625 1.132812 -5.941406 1.152344 -5.488281 C 1.171875 -4.660156 1.132812 -3.835938 1.117188 -3.007812 C 1.097656 -2.554688 1.117188 -2.105469 1.152344 -1.636719 C 1.1875 -1.222656 1.132812 -0.792969 1.097656 -0.359375 C 1.097656 -0.199219 1.132812 -0.0703125 1.277344 0.0195312 C 1.816406 -0.0703125 2.359375 -0.0351562 2.898438 -0.0195312 C 3.257812 0 3.601562 0.0546875 3.960938 0.0351562 C 4.644531 0.0195312 5.328125 -0.0898438 6.03125 -0.0898438 C 6.191406 -0.0898438 6.300781 -0.234375 6.246094 -0.394531 C 6.226562 -0.46875 6.210938 -0.539062 6.210938 -0.613281 C 6.210938 -1.207031 6.226562 -1.800781 6.210938 -2.375 C 6.210938 -2.914062 6.226562 -3.457031 6.191406 -3.996094 C 6.136719 -4.769531 6.191406 -5.542969 6.210938 -6.316406 C 6.210938 -6.964844 6.226562 -7.613281 6.210938 -8.261719 C 6.191406 -8.65625 6.226562 -9.054688 6.210938 -9.449219 C 6.191406 -10.132812 6.265625 -10.835938 6.226562 -11.519531 C 6.210938 -11.773438 6.210938 -12.042969 6.226562 -12.292969 C 6.246094 -12.582031 6.136719 -12.652344 5.867188 -12.636719 Z M 5.867188 -12.636719 "/></g></g></g><g fill="#082066" fill-opacity="1"><g transform="translate(187.369646, 192.218527)"><g><path d="M 8.710938 -12.742188 C 8.207031 -12.742188 7.703125 -12.707031 7.21875 -12.707031 C 6.769531 -12.707031 6.335938 -12.691406 5.886719 -12.742188 C 5.6875 -12.761719 5.488281 -12.726562 5.308594 -12.707031 C 5.023438 -12.058594 4.84375 -11.410156 4.570312 -10.800781 C 4.285156 -10.132812 4.121094 -9.433594 3.78125 -8.785156 C 3.527344 -8.316406 3.457031 -7.777344 3.257812 -7.289062 C 3.113281 -6.964844 3.042969 -6.605469 2.898438 -6.300781 C 2.574219 -5.632812 2.304688 -4.933594 2.015625 -4.246094 C 1.871094 -3.90625 1.78125 -3.5625 1.621094 -3.238281 C 1.367188 -2.773438 1.207031 -2.269531 1.042969 -1.78125 C 0.898438 -1.3125 0.664062 -0.882812 0.484375 -0.433594 C 0.414062 -0.234375 0.449219 -0.125 0.523438 0 C 1.078125 -0.0195312 1.621094 -0.0546875 2.25 -0.0351562 C 2.429688 -0.324219 2.519531 -0.757812 2.699219 -1.132812 C 2.898438 -1.546875 3.042969 -1.960938 3.222656 -2.410156 C 4.769531 -2.320312 6.316406 -2.539062 7.882812 -2.394531 C 8.171875 -1.585938 8.515625 -0.773438 8.785156 0.0351562 C 8.945312 0.109375 9.089844 0 9.214844 0.0195312 C 10.042969 0.0351562 10.871094 0.0195312 11.699219 -0.0351562 C 12.222656 -0.0703125 12.742188 0 13.265625 -0.0898438 C 13.429688 -0.125 13.644531 -0.0195312 13.769531 -0.253906 C 12.042969 -4.339844 10.675781 -8.566406 8.910156 -12.671875 C 8.875 -12.691406 8.785156 -12.742188 8.710938 -12.742188 Z M 5.652344 -8.695312 C 6.210938 -7.21875 6.679688 -5.707031 7.234375 -4.210938 C 6.101562 -4.175781 5.003906 -4.105469 3.90625 -4.175781 C 4.519531 -5.652344 4.949219 -7.21875 5.652344 -8.695312 Z M 5.652344 -8.695312 "/></g></g></g><g fill="#082066" fill-opacity="1"><g transform="translate(201.625607, 192.218527)"><g/></g></g><g fill="#082066" fill-opacity="1"><g transform="translate(206.485592, 192.218527)"><g><path d="M 3.90625 -12.617188 C 3.3125 -12.671875 2.71875 -12.582031 2.105469 -12.601562 C 1.78125 -12.617188 1.457031 -12.652344 1.132812 -12.5625 C 1.078125 -12.457031 1.097656 -12.203125 1.097656 -12.113281 C 1.078125 -11.59375 1.132812 -11.25 1.132812 -10.726562 L 1.132812 -9 C 1.132812 -8.640625 1.132812 -8.261719 1.117188 -7.902344 C 1.097656 -7.488281 1.097656 -7.09375 1.117188 -6.695312 C 1.117188 -6.210938 1.132812 -5.722656 1.097656 -5.238281 C 1.0625 -4.894531 1.097656 -4.554688 1.117188 -4.195312 L 1.171875 -3.1875 L 1.171875 -1.855469 C 1.171875 -1.457031 1.1875 -1.078125 1.152344 -0.683594 C 1.132812 -0.46875 1.078125 -0.304688 1.222656 0 C 1.726562 -0.0546875 2.25 -0.0195312 2.773438 -0.0546875 C 3.382812 -0.0898438 3.996094 0 4.625 -0.0351562 C 5.6875 -0.0898438 6.769531 -0.0195312 7.828125 0 C 8.53125 0.0195312 9.214844 -0.0703125 9.917969 -0.0546875 C 10.296875 -0.0546875 10.675781 -0.179688 11.070312 -0.214844 C 11.519531 -0.269531 11.933594 -0.433594 12.347656 -0.648438 C 12.726562 -0.847656 13.050781 -1.132812 13.375 -1.421875 C 13.84375 -1.855469 14.183594 -2.359375 14.417969 -2.914062 C 14.722656 -3.636719 14.941406 -4.375 14.976562 -5.164062 C 15.03125 -5.832031 15.101562 -6.40625 15.101562 -7.054688 C 15.101562 -7.523438 14.941406 -8.136719 14.941406 -8.386719 C 14.941406 -8.460938 14.902344 -8.53125 14.886719 -8.605469 C 14.6875 -9.054688 14.542969 -9.539062 14.292969 -9.953125 C 14.113281 -10.242188 13.933594 -10.511719 13.714844 -10.765625 C 13.5 -11.035156 13.175781 -11.179688 12.925781 -11.394531 C 12.652344 -11.644531 12.347656 -11.84375 12.023438 -11.988281 C 11.554688 -12.167969 11.089844 -12.382812 10.566406 -12.421875 C 10.207031 -12.457031 9.757812 -12.601562 9.394531 -12.582031 C 8.964844 -12.546875 7.992188 -12.617188 7.578125 -12.601562 C 7.09375 -12.5625 4.355469 -12.582031 3.90625 -12.617188 Z M 7.378906 -10.816406 C 8.191406 -10.78125 8.710938 -10.332031 9.070312 -9.628906 C 9.269531 -9.269531 9.378906 -8.945312 9.484375 -8.550781 C 9.613281 -8.136719 9.703125 -7.632812 9.703125 -7.253906 C 9.71875 -6.804688 9.683594 -6.335938 9.71875 -5.867188 C 9.757812 -5.5625 9.71875 -4.175781 9.289062 -3.222656 C 9.125 -2.863281 8.875 -2.574219 8.550781 -2.320312 C 8.171875 -2.035156 7.777344 -1.945312 7.34375 -1.90625 C 6.964844 -1.871094 6.496094 -1.890625 6.121094 -1.890625 C 5.992188 -2.140625 6.085938 -2.410156 6.066406 -2.683594 C 6.046875 -3.292969 5.992188 -3.925781 5.992188 -4.535156 C 5.992188 -5.09375 6.046875 -7.164062 6.011719 -7.398438 C 5.976562 -7.648438 6.046875 -8.621094 6.011719 -9.234375 C 5.992188 -9.738281 6.101562 -10.222656 6.03125 -10.746094 C 6.175781 -10.78125 6.316406 -10.816406 6.460938 -10.816406 C 6.769531 -10.800781 7.074219 -10.816406 7.378906 -10.816406 Z M 7.378906 -10.816406 "/></g></g></g><g fill="#082066" fill-opacity="1"><g transform="translate(222.397548, 192.218527)"><g><path d="M 11.574219 -12.601562 L 11.429688 -12.601562 C 10.855469 -12.601562 10.277344 -12.636719 9.71875 -12.582031 C 9.144531 -12.527344 8.566406 -12.601562 8.011719 -12.5625 C 7.433594 -12.511719 6.839844 -12.582031 6.265625 -12.546875 C 5.867188 -12.527344 5.453125 -12.546875 5.058594 -12.527344 C 3.925781 -12.472656 2.789062 -12.5625 1.65625 -12.511719 C 1.492188 -12.511719 1.402344 -12.546875 1.242188 -12.492188 C 1.207031 -12.4375 1.117188 -12.421875 1.078125 -12.382812 C 1.097656 -12.148438 1.171875 -10.816406 1.132812 -9.125 C 1.097656 -8.621094 1.097656 -8.117188 1.078125 -7.613281 C 1.078125 -7.109375 1.097656 -6.589844 1.097656 -6.085938 C 1.097656 -5.597656 1.132812 -5.128906 1.171875 -4.644531 C 1.207031 -4.339844 1.1875 -4.03125 1.1875 -3.726562 C 1.1875 -3.347656 1.207031 -2.953125 1.171875 -2.59375 C 1.132812 -2.214844 1.132812 -1.871094 1.171875 -1.511719 C 1.207031 -1.007812 1.222656 -0.484375 1.1875 0.0195312 C 1.1875 0.0898438 1.675781 0.0195312 1.835938 0.0195312 C 2.304688 0.0195312 2.753906 0.0546875 3.203125 0.0898438 C 3.601562 0.109375 5.09375 0.0195312 5.308594 0.0195312 C 6.316406 0.0195312 7.324219 0.0351562 8.316406 0 C 9.089844 -0.0195312 9.863281 -0.0703125 10.636719 -0.0195312 C 11.25 0.0195312 11.84375 -0.0898438 12.457031 -0.0703125 C 12.707031 -0.0546875 12.835938 -0.199219 12.816406 -0.449219 L 12.816406 -1.800781 C 12.4375 -1.996094 12.078125 -1.816406 11.71875 -1.816406 C 11.125 -1.816406 10.511719 -1.835938 9.917969 -1.765625 C 9.628906 -1.746094 9.324219 -1.800781 9.054688 -1.746094 C 8.585938 -1.675781 8.136719 -1.691406 7.667969 -1.65625 C 7.308594 -1.636719 6.910156 -1.65625 6.535156 -1.675781 C 6.371094 -1.691406 6.191406 -1.621094 6.046875 -1.726562 C 5.992188 -2.96875 5.886719 -4.210938 5.976562 -5.472656 L 7.308594 -5.472656 C 7.558594 -5.472656 7.8125 -5.472656 8.0625 -5.488281 C 8.710938 -5.507812 9.34375 -5.542969 9.988281 -5.542969 C 10.332031 -5.542969 10.675781 -5.5625 11.015625 -5.5625 C 11.195312 -5.5625 11.304688 -5.707031 11.304688 -5.886719 C 11.285156 -6.28125 11.269531 -6.679688 11.285156 -7.09375 C 11.304688 -7.34375 11.160156 -7.488281 10.90625 -7.507812 C 10.601562 -7.523438 10.296875 -7.507812 9.988281 -7.488281 C 9.359375 -7.46875 8.730469 -7.414062 8.101562 -7.414062 C 7.8125 -7.433594 7.523438 -7.453125 7.234375 -7.398438 C 6.820312 -7.34375 6.425781 -7.46875 6.011719 -7.414062 C 5.886719 -8.515625 6.011719 -9.703125 5.976562 -10.78125 C 8.011719 -10.960938 10.0625 -10.835938 12.097656 -10.871094 C 12.113281 -10.960938 12.148438 -11.050781 12.132812 -11.140625 C 12.097656 -11.464844 12.058594 -11.789062 12.113281 -12.132812 C 12.148438 -12.472656 11.933594 -12.636719 11.574219 -12.601562 Z M 11.574219 -12.601562 "/></g></g></g><g fill="#082066" fill-opacity="1"><g transform="translate(235.753512, 192.218527)"><g><path d="M 13.535156 -12.636719 C 13.210938 -12.601562 12.886719 -12.617188 12.5625 -12.601562 C 12.367188 -12.601562 12.167969 -12.546875 11.953125 -12.492188 C 12.058594 -9.898438 11.953125 -7.324219 12.007812 -4.714844 C 9.972656 -7.199219 8.046875 -9.773438 6.121094 -12.292969 C 6.085938 -12.402344 5.992188 -12.472656 5.902344 -12.5625 C 4.246094 -12.601562 2.753906 -12.4375 1.117188 -12.511719 C 1.0625 -12.347656 1.078125 -12.257812 1.078125 -12.148438 C 1.152344 -11.519531 1.152344 -10.90625 1.152344 -10.277344 C 1.152344 -9.738281 1.117188 -9.199219 1.152344 -8.65625 C 1.1875 -8.351562 1.207031 -8.046875 1.1875 -7.738281 C 1.132812 -7.183594 1.152344 -6.625 1.171875 -6.085938 C 1.207031 -5.238281 1.261719 -4.410156 1.261719 -3.5625 C 1.242188 -2.988281 1.242188 -2.429688 1.207031 -1.855469 C 1.1875 -1.296875 1.1875 -0.792969 1.1875 -0.234375 C 1.1875 -0.144531 1.1875 -0.0351562 1.296875 0.0351562 C 1.925781 -0.144531 2.59375 0.0898438 3.1875 -0.109375 C 3.113281 -0.972656 3.203125 -1.816406 3.132812 -2.664062 C 3.078125 -3.511719 3.058594 -4.375 3.023438 -5.21875 C 3.007812 -6.085938 3.042969 -6.929688 2.96875 -7.792969 C 5.023438 -5.257812 6.984375 -2.664062 8.839844 0 C 8.875 0.0351562 11.105469 -0.0195312 11.503906 0 C 12.148438 0.0195312 12.601562 -0.0351562 13.246094 -0.0351562 C 13.339844 -0.0351562 13.570312 0 13.644531 -0.0195312 C 13.789062 -0.0351562 13.84375 -0.125 13.84375 -0.253906 C 13.84375 -0.394531 13.84375 -0.539062 13.824219 -0.683594 C 13.753906 -1.441406 13.84375 -2.179688 13.804688 -2.933594 C 13.769531 -3.382812 13.804688 -3.851562 13.789062 -4.300781 C 13.753906 -4.984375 13.734375 -5.671875 13.753906 -6.335938 C 13.789062 -7.074219 13.753906 -7.8125 13.769531 -8.550781 C 13.789062 -9.070312 13.769531 -9.59375 13.753906 -10.132812 C 13.734375 -10.402344 13.714844 -10.691406 13.734375 -10.960938 C 13.769531 -11.484375 13.789062 -12.007812 13.789062 -12.527344 C 13.714844 -12.617188 13.644531 -12.652344 13.535156 -12.636719 Z M 13.535156 -12.636719 "/></g></g></g><g fill="#082066" fill-opacity="1"><g transform="translate(250.711465, 192.218527)"><g><path d="M 11.609375 -12.671875 C 10.421875 -12.636719 9.214844 -12.636719 8.027344 -12.582031 C 6.589844 -12.527344 5.148438 -12.617188 3.691406 -12.511719 C 2.933594 -12.472656 2.160156 -12.511719 1.402344 -12.492188 C 1.1875 -12.492188 0.972656 -12.527344 0.773438 -12.421875 C 0.648438 -11.863281 0.863281 -11.320312 0.71875 -10.78125 C 0.882812 -10.601562 1.078125 -10.601562 1.277344 -10.621094 C 1.746094 -10.675781 2.214844 -10.691406 2.683594 -10.65625 C 3.058594 -10.636719 3.457031 -10.675781 3.816406 -10.601562 C 3.925781 -10.492188 3.90625 -10.402344 3.90625 -10.3125 C 3.925781 -9.539062 4.03125 -8.785156 3.960938 -8.027344 C 3.90625 -7.453125 3.960938 -6.875 3.960938 -6.316406 C 3.941406 -5.203125 3.925781 -4.105469 3.996094 -2.988281 C 4.03125 -2.160156 4.050781 -1.3125 3.941406 -0.46875 C 3.925781 -0.269531 3.90625 -0.0703125 4.105469 0.0546875 C 5.6875 -0.0898438 7.289062 0.0898438 8.875 -0.0195312 C 8.980469 -0.214844 8.964844 -0.378906 8.964844 -0.523438 C 8.945312 -0.898438 8.875 -1.261719 8.890625 -1.621094 C 8.945312 -2.59375 8.910156 -3.5625 8.875 -4.535156 C 8.855469 -4.96875 8.964844 -5.398438 8.964844 -5.832031 C 8.964844 -6.335938 8.929688 -6.839844 8.910156 -7.34375 C 8.855469 -8.082031 8.890625 -8.820312 8.820312 -9.539062 C 8.800781 -9.882812 8.765625 -10.222656 8.875 -10.585938 C 9.882812 -10.621094 10.90625 -10.726562 11.953125 -10.746094 C 12.222656 -11.359375 11.898438 -11.96875 12.023438 -12.527344 C 11.898438 -12.671875 11.753906 -12.671875 11.609375 -12.671875 Z M 11.609375 -12.671875 "/></g></g></g><g fill="#082066" fill-opacity="1"><g transform="translate(263.401428, 192.218527)"><g><path d="M 8.710938 -12.742188 C 8.207031 -12.742188 7.703125 -12.707031 7.21875 -12.707031 C 6.769531 -12.707031 6.335938 -12.691406 5.886719 -12.742188 C 5.6875 -12.761719 5.488281 -12.726562 5.308594 -12.707031 C 5.023438 -12.058594 4.84375 -11.410156 4.570312 -10.800781 C 4.285156 -10.132812 4.121094 -9.433594 3.78125 -8.785156 C 3.527344 -8.316406 3.457031 -7.777344 3.257812 -7.289062 C 3.113281 -6.964844 3.042969 -6.605469 2.898438 -6.300781 C 2.574219 -5.632812 2.304688 -4.933594 2.015625 -4.246094 C 1.871094 -3.90625 1.78125 -3.5625 1.621094 -3.238281 C 1.367188 -2.773438 1.207031 -2.269531 1.042969 -1.78125 C 0.898438 -1.3125 0.664062 -0.882812 0.484375 -0.433594 C 0.414062 -0.234375 0.449219 -0.125 0.523438 0 C 1.078125 -0.0195312 1.621094 -0.0546875 2.25 -0.0351562 C 2.429688 -0.324219 2.519531 -0.757812 2.699219 -1.132812 C 2.898438 -1.546875 3.042969 -1.960938 3.222656 -2.410156 C 4.769531 -2.320312 6.316406 -2.539062 7.882812 -2.394531 C 8.171875 -1.585938 8.515625 -0.773438 8.785156 0.0351562 C 8.945312 0.109375 9.089844 0 9.214844 0.0195312 C 10.042969 0.0351562 10.871094 0.0195312 11.699219 -0.0351562 C 12.222656 -0.0703125 12.742188 0 13.265625 -0.0898438 C 13.429688 -0.125 13.644531 -0.0195312 13.769531 -0.253906 C 12.042969 -4.339844 10.675781 -8.566406 8.910156 -12.671875 C 8.875 -12.691406 8.785156 -12.742188 8.710938 -12.742188 Z M 5.652344 -8.695312 C 6.210938 -7.21875 6.679688 -5.707031 7.234375 -4.210938 C 6.101562 -4.175781 5.003906 -4.105469 3.90625 -4.175781 C 4.519531 -5.652344 4.949219 -7.21875 5.652344 -8.695312 Z M 5.652344 -8.695312 "/></g></g></g><g fill="#082066" fill-opacity="1"><g transform="translate(277.65739, 192.218527)"><g><path d="M 5.777344 -12.601562 C 5.488281 -12.546875 5.21875 -12.636719 4.949219 -12.601562 C 4.410156 -12.546875 3.851562 -12.511719 3.292969 -12.511719 C 2.789062 -12.527344 2.285156 -12.457031 1.765625 -12.511719 C 1.566406 -12.511719 1.351562 -12.546875 1.171875 -12.472656 C 1.027344 -12.367188 1.152344 -11.230469 1.152344 -10.78125 C 1.171875 -10.511719 1.078125 -10.242188 1.078125 -9.953125 C 1.097656 -9.484375 1.097656 -9.019531 1.152344 -8.53125 C 1.222656 -7.703125 1.117188 -6.875 1.117188 -6.046875 C 1.132812 -5.527344 1.117188 -4.984375 1.152344 -4.464844 C 1.222656 -3.886719 1.132812 -3.3125 1.1875 -2.734375 C 1.261719 -1.980469 1.207031 -1.207031 1.207031 -0.433594 C 1.207031 -0.253906 1.277344 -0.0898438 1.386719 0.0351562 C 2.089844 0.0351562 2.789062 0.0703125 3.472656 0.0195312 C 4.339844 -0.0351562 5.203125 0 6.066406 -0.0195312 C 6.949219 -0.0546875 7.828125 -0.0195312 8.710938 -0.0546875 C 9.34375 -0.0898438 9.972656 -0.0351562 10.585938 -0.0703125 C 10.835938 -0.0898438 11.070312 0.0195312 11.320312 -0.109375 C 11.609375 -0.394531 11.429688 -0.773438 11.484375 -1.1875 L 11.503906 -1.925781 C 11.449219 -2.035156 11.339844 -2.070312 11.230469 -2.050781 C 11.015625 -2.035156 10.78125 -1.996094 10.566406 -2.035156 C 10.171875 -2.089844 9.773438 -1.960938 9.378906 -1.980469 C 9.089844 -1.996094 8.785156 -1.996094 8.496094 -1.980469 C 8.117188 -1.960938 7.738281 -1.945312 7.363281 -1.945312 L 6.175781 -1.945312 C 5.921875 -5.453125 5.957031 -8.945312 6.101562 -12.421875 C 5.976562 -12.511719 5.867188 -12.617188 5.777344 -12.601562 Z M 5.777344 -12.601562 "/></g></g></g><g fill="#000000" fill-opacity="1"><g transform="translate(209.979644, 209.266349)"><g><path d="M 6.296875 -9.976562 C 6.03125 -9.976562 5.765625 -9.921875 5.5 -9.910156 C 5.09375 -9.878906 4.6875 -9.769531 4.296875 -9.640625 C 3.695312 -9.476562 3.136719 -9.195312 2.617188 -8.859375 C 2.476562 -8.761719 2.324219 -8.691406 2.226562 -8.566406 C 2.027344 -8.339844 1.820312 -8.144531 1.652344 -7.894531 C 1.398438 -7.53125 1.148438 -7.164062 0.964844 -6.746094 C 0.910156 -6.621094 0.839844 -6.480469 0.8125 -6.339844 C 0.785156 -6.117188 0.726562 -5.890625 0.6875 -5.667969 C 0.628906 -5.386719 0.628906 -5.109375 0.628906 -4.828125 C 0.628906 -4.589844 0.6875 -4.367188 0.699219 -4.128906 C 0.714844 -3.847656 1.035156 -2.742188 1.105469 -2.601562 C 1.316406 -2.140625 1.875 -1.273438 2.15625 -1.121094 C 2.363281 -0.992188 2.546875 -0.824219 2.757812 -0.714844 C 3.289062 -0.417969 3.820312 -0.167969 4.410156 -0.0273438 C 4.898438 0.0820312 5.402344 0.195312 5.933594 0.183594 C 6.324219 0.183594 6.71875 0.238281 7.109375 0.210938 C 7.640625 0.152344 8.160156 0.0820312 8.664062 -0.0820312 C 9.167969 -0.25 9.65625 -0.476562 10.132812 -0.699219 C 10.398438 -0.824219 10.621094 -0.992188 10.875 -1.132812 C 11.097656 -1.257812 11.113281 -1.441406 10.972656 -1.636719 C 10.832031 -1.804688 10.71875 -1.988281 10.582031 -2.140625 C 10.480469 -2.265625 10.414062 -2.40625 10.3125 -2.519531 C 10.246094 -2.53125 10.175781 -2.503906 10.089844 -2.464844 C 9.867188 -2.28125 9.640625 -2.097656 9.375 -1.972656 C 8.902344 -1.734375 8.398438 -1.566406 7.894531 -1.457031 C 7.726562 -1.414062 7.542969 -1.398438 7.402344 -1.414062 C 7.109375 -1.457031 6.816406 -1.457031 6.523438 -1.539062 C 6.171875 -1.636719 5.878906 -1.804688 5.570312 -1.988281 C 5.472656 -2.042969 5.375 -2.113281 5.304688 -2.210938 C 4.96875 -2.632812 4.703125 -3.007812 4.578125 -3.625 C 4.519531 -3.90625 4.378906 -4.15625 4.464844 -5.402344 C 4.519531 -5.820312 4.660156 -6.296875 4.8125 -6.691406 C 4.941406 -6.984375 5.109375 -7.25 5.316406 -7.488281 C 5.484375 -7.667969 5.597656 -7.894531 5.820312 -8.03125 C 6.019531 -8.160156 6.226562 -8.269531 6.453125 -8.339844 C 6.675781 -8.410156 6.859375 -8.46875 7.136719 -8.46875 C 7.445312 -8.46875 7.726562 -8.367188 8.019531 -8.285156 C 8.496094 -8.160156 8.816406 -7.894531 9 -7.429688 C 9.109375 -7.152344 9.125 -7.136719 9.417969 -7.152344 C 9.476562 -7.164062 9.613281 -7.164062 9.65625 -7.164062 C 9.949219 -7.164062 10.160156 -7.125 10.453125 -7.136719 C 10.566406 -7.136719 10.734375 -7.109375 10.777344 -7.136719 C 10.832031 -7.164062 10.75 -7.375 10.734375 -7.460938 C 10.691406 -7.710938 10.582031 -7.921875 10.496094 -8.144531 C 10.453125 -8.269531 10.382812 -8.367188 10.3125 -8.480469 C 9.964844 -8.972656 9.445312 -9.25 8.929688 -9.515625 C 8.257812 -9.851562 7.515625 -9.9375 6.757812 -9.949219 C 6.605469 -9.964844 6.453125 -9.976562 6.296875 -9.976562 Z M 6.296875 -9.976562 "/></g></g></g><g fill="#000000" fill-opacity="1"><g transform="translate(221.663123, 209.266349)"><g><path d="M 6.773438 -9.910156 C 6.382812 -9.910156 5.988281 -9.878906 5.613281 -9.878906 C 5.261719 -9.878906 4.925781 -9.867188 4.578125 -9.910156 C 4.421875 -9.921875 4.269531 -9.894531 4.128906 -9.878906 C 3.90625 -9.375 3.765625 -8.871094 3.554688 -8.398438 C 3.332031 -7.878906 3.203125 -7.332031 2.9375 -6.828125 C 2.742188 -6.464844 2.6875 -6.046875 2.53125 -5.667969 C 2.421875 -5.417969 2.363281 -5.136719 2.253906 -4.898438 C 2 -4.378906 1.792969 -3.835938 1.566406 -3.304688 C 1.457031 -3.035156 1.386719 -2.769531 1.257812 -2.519531 C 1.0625 -2.15625 0.9375 -1.761719 0.8125 -1.386719 C 0.699219 -1.023438 0.519531 -0.6875 0.378906 -0.335938 C 0.320312 -0.183594 0.351562 -0.0976562 0.40625 0 C 0.839844 -0.015625 1.257812 -0.0429688 1.75 -0.0273438 C 1.890625 -0.25 1.960938 -0.585938 2.097656 -0.882812 C 2.253906 -1.203125 2.363281 -1.527344 2.503906 -1.875 C 3.707031 -1.804688 4.914062 -1.972656 6.128906 -1.863281 C 6.355469 -1.230469 6.621094 -0.601562 6.828125 0.0273438 C 6.957031 0.0820312 7.066406 0 7.164062 0.015625 C 7.808594 0.0273438 8.453125 0.015625 9.097656 -0.0273438 C 9.503906 -0.0546875 9.910156 0 10.3125 -0.0703125 C 10.441406 -0.0976562 10.609375 -0.015625 10.707031 -0.195312 C 9.363281 -3.371094 8.300781 -6.660156 6.925781 -9.851562 C 6.898438 -9.867188 6.828125 -9.910156 6.773438 -9.910156 Z M 4.394531 -6.757812 C 4.828125 -5.613281 5.191406 -4.4375 5.625 -3.273438 C 4.746094 -3.246094 3.890625 -3.191406 3.035156 -3.246094 C 3.511719 -4.394531 3.847656 -5.613281 4.394531 -6.757812 Z M 4.394531 -6.757812 "/></g></g></g><g fill="#000000" fill-opacity="1"><g transform="translate(232.74494, 209.266349)"><g><path d="M 7.445312 -9.824219 C 6.382812 -9.839844 5.316406 -9.699219 4.253906 -9.742188 C 3.75 -9.753906 3.246094 -9.726562 2.742188 -9.726562 C 2.226562 -9.726562 1.707031 -9.769531 1.191406 -9.742188 C 1.078125 -9.742188 0.980469 -9.726562 0.894531 -9.601562 C 0.894531 -8.832031 0.882812 -8.03125 0.894531 -7.234375 L 0.894531 -2.421875 C 0.882812 -1.636719 0.824219 -0.839844 0.855469 -0.0273438 L 4.6875 -0.0273438 C 4.6875 -1.160156 4.578125 -2.253906 4.644531 -3.359375 C 5.625 -2.253906 6.507812 -1.105469 7.558594 -0.0273438 C 7.628906 -0.0273438 7.738281 -0.0429688 7.863281 -0.0273438 C 8.410156 0.015625 8.957031 -0.0429688 9.503906 0.0273438 C 10.160156 0.0820312 10.804688 0.0820312 11.460938 0.0546875 C 11.574219 0.0546875 11.644531 0.015625 11.714844 -0.125 C 11.222656 -0.699219 10.679688 -1.246094 10.160156 -1.820312 C 9.640625 -2.394531 9.125 -2.980469 8.59375 -3.582031 C 8.761719 -3.625 8.902344 -3.667969 9.054688 -3.722656 C 9.839844 -3.972656 10.414062 -4.492188 10.734375 -5.25 C 11.054688 -5.960938 11.054688 -6.71875 10.902344 -7.472656 C 10.691406 -8.453125 10.019531 -9.070312 9.152344 -9.460938 C 8.84375 -9.585938 8.550781 -9.753906 8.199219 -9.78125 C 7.949219 -9.808594 7.695312 -9.824219 7.445312 -9.824219 Z M 5.191406 -8.242188 C 5.585938 -8.242188 5.960938 -8.269531 6.355469 -8.144531 C 6.605469 -8.074219 6.816406 -7.933594 6.957031 -7.710938 C 7.109375 -7.460938 7.261719 -7.195312 7.234375 -6.859375 C 7.234375 -6.660156 7.277344 -6.464844 7.277344 -6.269531 C 7.277344 -5.570312 6.925781 -5.234375 6.324219 -5.011719 C 6.171875 -4.941406 5.988281 -4.914062 5.808594 -4.925781 C 5.445312 -4.941406 5.09375 -4.898438 4.6875 -4.953125 C 4.644531 -6.046875 4.605469 -7.125 4.675781 -8.199219 C 4.855469 -8.300781 5.039062 -8.257812 5.191406 -8.242188 Z M 5.191406 -8.242188 "/></g></g></g><g fill="#000000" fill-opacity="1"><g transform="translate(244.834191, 209.266349)"><g><path d="M 9 -9.796875 L 8.886719 -9.796875 C 8.4375 -9.796875 7.992188 -9.824219 7.558594 -9.78125 C 7.109375 -9.742188 6.660156 -9.796875 6.226562 -9.769531 C 5.78125 -9.726562 5.316406 -9.78125 4.871094 -9.753906 C 4.5625 -9.742188 4.242188 -9.753906 3.933594 -9.742188 C 3.050781 -9.699219 2.167969 -9.769531 1.289062 -9.726562 C 1.160156 -9.726562 1.089844 -9.753906 0.964844 -9.710938 C 0.9375 -9.671875 0.867188 -9.65625 0.839844 -9.628906 C 0.855469 -9.445312 0.910156 -8.410156 0.882812 -7.09375 C 0.855469 -6.703125 0.855469 -6.3125 0.839844 -5.917969 C 0.839844 -5.527344 0.855469 -5.121094 0.855469 -4.730469 C 0.855469 -4.351562 0.882812 -3.988281 0.910156 -3.609375 C 0.9375 -3.371094 0.921875 -3.136719 0.921875 -2.898438 C 0.921875 -2.601562 0.9375 -2.296875 0.910156 -2.015625 C 0.882812 -1.722656 0.882812 -1.457031 0.910156 -1.175781 C 0.9375 -0.785156 0.953125 -0.378906 0.921875 0.015625 C 0.921875 0.0703125 1.300781 0.015625 1.425781 0.015625 C 1.792969 0.015625 2.140625 0.0429688 2.492188 0.0703125 C 2.800781 0.0820312 3.960938 0.015625 4.128906 0.015625 C 4.914062 0.015625 5.695312 0.0273438 6.464844 0 C 7.066406 -0.015625 7.667969 -0.0546875 8.269531 -0.015625 C 8.746094 0.015625 9.207031 -0.0703125 9.683594 -0.0546875 C 9.878906 -0.0429688 9.976562 -0.152344 9.964844 -0.351562 L 9.964844 -1.398438 C 9.671875 -1.554688 9.390625 -1.414062 9.109375 -1.414062 C 8.648438 -1.414062 8.171875 -1.425781 7.710938 -1.371094 C 7.488281 -1.359375 7.25 -1.398438 7.039062 -1.359375 C 6.675781 -1.300781 6.324219 -1.316406 5.960938 -1.289062 C 5.683594 -1.273438 5.375 -1.289062 5.082031 -1.300781 C 4.953125 -1.316406 4.8125 -1.257812 4.703125 -1.34375 C 4.660156 -2.308594 4.578125 -3.273438 4.644531 -4.253906 L 5.683594 -4.253906 C 5.878906 -4.253906 6.074219 -4.253906 6.269531 -4.269531 C 6.773438 -4.28125 7.261719 -4.308594 7.765625 -4.308594 C 8.03125 -4.308594 8.300781 -4.324219 8.566406 -4.324219 C 8.703125 -4.324219 8.789062 -4.4375 8.789062 -4.578125 C 8.773438 -4.882812 8.761719 -5.191406 8.773438 -5.515625 C 8.789062 -5.710938 8.675781 -5.820312 8.480469 -5.835938 C 8.242188 -5.851562 8.003906 -5.835938 7.765625 -5.820312 C 7.277344 -5.808594 6.789062 -5.765625 6.296875 -5.765625 C 6.074219 -5.78125 5.851562 -5.792969 5.625 -5.75 C 5.304688 -5.710938 4.996094 -5.808594 4.675781 -5.765625 C 4.578125 -6.621094 4.675781 -7.542969 4.644531 -8.382812 C 6.226562 -8.523438 7.824219 -8.425781 9.40625 -8.453125 C 9.417969 -8.523438 9.445312 -8.59375 9.433594 -8.664062 C 9.40625 -8.914062 9.375 -9.167969 9.417969 -9.433594 C 9.445312 -9.699219 9.277344 -9.824219 9 -9.796875 Z M 9 -9.796875 "/></g></g></g></svg>